<svg width="18" height="4" viewBox="0 0 18 4" fill="none" xmlns="http://www.w3.org/2000/svg">
<path d="M8.07928 2.02504C8.08027 2.33758 8.33452 2.59023 8.64706 2.58924C8.9596 2.58825 9.21225 2.334 9.21126 2.02146C9.21027 1.70892 8.95602 1.45628 8.64348 1.45726C8.33094 1.45825 8.07829 1.7125 8.07928 2.02504Z" fill="black" stroke="black" stroke-width="2" stroke-linecap="round" stroke-linejoin="round"/>
<path d="M1.28729 2.04651C1.28828 2.35905 1.54253 2.6117 1.85507 2.61071C2.16761 2.60972 2.42026 2.35547 2.41927 2.04293C2.41828 1.73039 2.16403 1.47775 1.85149 1.47873C1.53895 1.47972 1.2863 1.73397 1.28729 2.04651Z" fill="black" stroke="black" stroke-width="2" stroke-linecap="round" stroke-linejoin="round"/>
<path d="M14.8713 2.00357C14.8723 2.31611 15.1265 2.56876 15.4391 2.56777C15.7516 2.56679 16.0042 2.31253 16.0033 2C16.0023 1.68746 15.7481 1.43481 15.4355 1.43579C15.1229 1.43678 14.8703 1.69103 14.8713 2.00357Z" fill="black" stroke="black" stroke-width="2" stroke-linecap="round" stroke-linejoin="round"/>
</svg>
